<?xml version="1.0" standalone="no"?>
<!DOCTYPE svg PUBLIC "-//W3C//DTD SVG 20010904//EN"
 "http://www.w3.org/TR/2001/REC-SVG-20010904/DTD/svg10.dtd">
<svg version="1.0" xmlns="http://www.w3.org/2000/svg"
 width="700.000000pt" height="700.000000pt" viewBox="0 0 700.000000 700.000000"
 preserveAspectRatio="xMidYMid meet">
<metadata>
Created by potrace 1.11, written by Peter Selinger 2001-2013
</metadata>
<g transform="translate(0.000000,700.000000) scale(0.100000,-0.100000)"
fill="#000000" stroke="none">
<path d="M3275 6994 c-129 -11 -332 -38 -445 -60 -1397 -275 -2490 -1368
-2764 -2764 -47 -240 -60 -386 -60 -670 -1 -335 26 -557 100 -855 310 -1234
1275 -2208 2509 -2530 313 -82 532 -109 885 -109 286 0 404 10 645 55 917 170
1723 700 2257 1484 310 454 499 966 575 1550 25 194 24 613 -1 810 -101 792
-428 1476 -975 2038 -557 573 -1279 929 -2091 1032 -120 16 -528 27 -635 19z
m668 -188 c898 -130 1683 -592 2222 -1308 292 -389 504 -855 599 -1320 53
-259 60 -342 61 -673 0 -316 -5 -382 -46 -610 -159 -880 -682 -1671 -1435
-2173 -432 -287 -893 -458 -1444 -534 -129 -18 -671 -18 -800 0 -753 104
-1383 404 -1910 909 -554 531 -892 1206 -1002 2003 -18 129 -18 671 0 800 97
699 356 1279 800 1791 538 620 1311 1029 2112 1118 52 6 109 13 125 15 76 10
616 -3 718 -18z"/>
<path d="M3200 6605 c-1169 -122 -2037 -792 -2329 -1795 -82 -282 -111 -458
-111 -662 0 -254 41 -384 184 -582 93 -131 113 -167 125 -229 29 -156 -76
-281 -235 -279 -187 2 -330 191 -374 494 -18 120 -8 416 19 571 12 65 34 172
51 238 35 141 34 129 16 129 -14 0 -33 -59 -80 -260 -113 -475 -114 -998 -2
-1470 171 -720 574 -1298 1151 -1649 335 -204 868 -361 1228 -361 272 0 407
46 612 209 102 82 169 113 243 114 141 1 246 -105 245 -246 -2 -154 -136 -279
-368 -344 -96 -26 -109 -27 -330 -27 -259 0 -366 12 -595 70 -74 19 -136 34
-137 34 -2 0 -3 -7 -3 -15 0 -9 33 -24 95 -44 379 -122 948 -155 1405 -81 960
154 1707 707 2025 1500 203 505 260 995 150 1287 -29 76 -64 134 -147 244 -71
95 -95 141 -107 204 -30 158 72 287 225 288 194 0 337 -188 384 -505 29 -193
-2 -545 -70 -807 -35 -132 -35 -131 -15 -131 8 0 15 2 15 4 0 3 16 59 35 125
131 456 149 1013 49 1501 -189 915 -729 1603 -1504 1915 -200 80 -495 159
-697 186 -121 15 -385 7 -473 -16 -98 -26 -214 -86 -325 -170 -114 -85 -144
-102 -212 -114 -157 -30 -286 75 -285 231 0 115 77 221 209 290 151 79 291
103 554 95 244 -7 383 -32 652 -114 11 -4 17 0 17 11 0 25 -241 94 -455 131
-267 45 -580 56 -835 30z m-79 -1242 c134 -60 188 -177 167 -366 -34 -315
-283 -681 -610 -897 -49 -32 -113 -68 -143 -80 -37 -15 -55 -28 -55 -40 0 -26
41 -82 79 -107 88 -59 256 1 415 149 63 58 74 73 84 118 43 186 171 382 281
427 58 24 126 21 156 -7 93 -87 28 -266 -186 -508 -46 -53 -47 -56 -64 -165
-9 -62 -15 -126 -13 -144 l3 -32 215 132 c198 122 383 243 503 328 47 33 48
35 42 75 -12 79 -6 308 10 390 30 158 92 311 181 446 56 84 183 204 260 245
287 152 574 16 574 -273 0 -127 -43 -251 -137 -392 -70 -105 -273 -312 -425
-432 -59 -47 -108 -92 -108 -100 0 -24 61 -110 100 -141 35 -28 35 -28 85 -13
68 21 226 29 300 15 156 -29 232 -123 175 -216 -44 -71 -198 -104 -402 -85
-132 12 -148 10 -253 -43 -289 -143 -463 -428 -482 -789 -13 -261 49 -470 193
-650 181 -225 487 -292 738 -160 237 124 366 424 297 694 -26 102 -60 165
-114 215 -61 57 -100 75 -174 81 -81 6 -141 -11 -193 -55 -107 -92 -108 -224
-1 -352 71 -86 87 -141 56 -201 -21 -40 -63 -60 -129 -60 -178 0 -326 194
-326 427 0 244 172 454 425 518 76 19 234 19 310 0 255 -65 430 -279 481 -592
46 -283 -47 -563 -258 -772 -181 -180 -403 -271 -660 -271 -503 0 -885 330
-989 855 -20 102 -18 358 4 465 47 229 139 411 289 576 65 71 199 180 282 228
33 20 67 40 75 45 12 8 9 15 -15 43 -16 18 -36 44 -45 57 l-15 24 -250 -165
c-137 -91 -337 -217 -444 -280 l-195 -115 -7 -69 c-3 -38 -12 -125 -18 -194
-14 -161 -47 -383 -70 -485 -100 -429 -373 -801 -681 -926 -202 -82 -450 -77
-606 12 -186 106 -292 350 -253 580 35 208 146 406 322 575 190 182 418 328
946 606 98 52 92 43 108 168 l7 54 -29 -19 c-160 -106 -371 -136 -507 -73
-105 49 -199 157 -239 273 l-16 49 -67 13 c-150 27 -282 123 -348 251 -51 99
-62 151 -62 287 0 99 4 132 23 186 45 131 109 198 190 202 22 0 48 -5 57 -13
35 -29 37 -57 9 -189 -27 -132 -29 -223 -4 -303 23 -78 106 -156 167 -158 19
0 22 7 28 68 33 350 174 665 394 882 102 101 188 156 292 185 74 20 210 14
270 -12z"/>
<path d="M2849 5102 c-135 -87 -301 -380 -368 -650 -21 -87 -34 -182 -23 -182
4 1 28 15 54 33 217 149 472 489 508 676 24 130 -61 192 -171 123z"/>
<path d="M4602 5113 c-54 -26 -147 -137 -195 -231 -71 -140 -117 -301 -117
-415 l0 -49 70 62 c81 72 228 239 287 326 56 82 91 155 99 203 15 96 -56 148
-144 104z"/>
<path d="M2788 3186 c-429 -238 -711 -482 -832 -722 -37 -72 -66 -179 -66
-245 0 -63 28 -137 68 -177 64 -64 158 -78 290 -43 308 81 521 449 633 1096
21 121 23 145 12 145 -5 0 -52 -25 -105 -54z"/>
</g>
</svg>
